<?xml version="1.0" encoding="iso-8859-1"?>
<!-- Generator: Adobe Illustrator 19.0.0, SVG Export Plug-In . SVG Version: 6.00 Build 0)  -->
<svg version="1.1" id="Capa_1" xmlns="http://www.w3.org/2000/svg" xmlns:xlink="http://www.w3.org/1999/xlink" x="0px" y="0px"
	 viewBox="0 0 512 512" style="enable-background:new 0 0 512 512;" xml:space="preserve">
<path style="fill:#FEA832;" d="M498.724,498.726c-17.701,17.699-45.899,17.699-63.6,0L314.437,378.037c-5.999-6-5.999-15.3,0-21.299
	l21.301-21l21-21.301c6-6,15.3-6,21.299,0l120.688,120.689C516.425,452.825,516.425,481.025,498.724,498.726z"/>
<path style="fill:#FE9923;" d="M498.724,498.726c-17.701,17.699-45.899,17.699-63.6,0L314.437,378.037c-5.999-6-5.999-15.3,0-21.299
	l21.301-21L498.724,498.726z"/>
<path style="fill:#787780;" d="M358.538,61.537c-82.2-82.2-214.801-81.899-297.001,0c-82.2,82.2-81.899,214.799,0,297.001
	c82.2,82.2,214.801,81.899,297.001,0C440.738,276.336,440.437,143.737,358.538,61.537z"/>
<path style="fill:#57555C;" d="M358.538,358.538c-82.2,81.899-214.801,82.2-297.001,0c-81.899-82.202-82.2-214.801,0-297.001
	L358.538,358.538z"/>
<path style="fill:#CAE8F9;" d="M360.038,210.038c0,41.4-16.8,78.9-43.801,106.199c-5.099,4.801-10.499,9-16.199,13.2h-180
	c-36.301-27.599-60-70.499-60-119.399c0-41.4,16.8-78.9,43.801-106.201c27.299-26.999,64.799-43.799,106.199-43.799
	C292.838,60.038,360.038,127.237,360.038,210.038z"/>
<path style="fill:#B7E0F6;" d="M316.237,316.237c-5.099,4.801-10.499,9-16.199,13.2h-180c-36.301-27.599-60-70.499-60-119.399
	c0-41.4,16.8-78.9,43.801-106.201L316.237,316.237z"/>
<path style="fill:#1689FC;" d="M300.038,315.038v14.399c-25.201,18.9-56.1,30.601-90,30.601s-64.799-11.7-90-30.601v-14.399
	c0-49.801,40.201-90,90-90c5.7,0,11.1,0.599,16.5,1.5c36.601,6.599,65.4,35.4,72.001,72.001
	C299.437,303.938,300.038,309.338,300.038,315.038z"/>
<path style="fill:#17ACE8;" d="M210.038,135.038c-20.4,0-38.401,10.199-49.2,25.8c-6.899,9.901-10.8,21.599-10.8,34.2
	c0,32.999,27.001,60,60,60c12.599,0,24.3-3.9,34.2-10.8c15.599-10.801,25.8-28.801,25.8-49.2
	C270.038,162.036,243.037,135.038,210.038,135.038z"/>
<g>
</g>
<g>
</g>
<g>
</g>
<g>
</g>
<g>
</g>
<g>
</g>
<g>
</g>
<g>
</g>
<g>
</g>
<g>
</g>
<g>
</g>
<g>
</g>
<g>
</g>
<g>
</g>
<g>
</g>
</svg>
